<svg xmlns="http://www.w3.org/2000/svg" viewBox="0 0 614 180"><defs><style>.cls-1{fill:#fff;}</style></defs><title>LogoTypo_white</title><g id="レイヤー_2" data-name="レイヤー 2"><g id="レイヤー_1-2" data-name="レイヤー 1"><path class="cls-1" d="M292.55,144.51c-6.65,5-15.71,9.49-24.39,9.49C242.48,154,224,133.89,224,107.08c0-25.69,20.14-46.91,44.53-46.91,8.5,0,17.37,4.47,24,9.49V64.08a3.52,3.52,0,0,1,3.51-3.54h14.41A3.41,3.41,0,0,1,314,64.08v86a3.42,3.42,0,0,1-3.51,3.54H296.06a3.53,3.53,0,0,1-3.51-3.54Zm-23.28-13c13.12,0,22.54-11.17,22.54-24.39S282.39,82.7,269.27,82.7c-12.2,0-22.91,11.17-22.91,24.38S257.07,131.47,269.27,131.47Z"/><path class="cls-1" d="M316.47,26.84A3.51,3.51,0,0,1,320,23.31h70.95a3.65,3.65,0,0,1,3.51,3.53V43.23a3.66,3.66,0,0,1-3.51,3.54H366.72V150.09a3.53,3.53,0,0,1-3.51,3.54H347a3.49,3.49,0,0,1-3.32-3.54l.18-103.7H320a3.51,3.51,0,0,1-3.51-3.54Z"/><path class="cls-1" d="M415.19,117.51c3.33,8.75,10.9,14.71,20,14.71a26.08,26.08,0,0,0,17.36-6.34,3.89,3.89,0,0,1,4.81.19l10.53,10.06a3.28,3.28,0,0,1,0,4.65c-8.13,8.56-19.59,13.22-32.7,13.22a42.21,42.21,0,0,1-30.86-12.85c-8.5-8.56-13.49-21-13.49-34.44,0-25.69,20-46.54,44.53-46.54A39.92,39.92,0,0,1,464,72.08c6.28,6,12.19,15.27,12.19,32.77a90.06,90.06,0,0,1-.55,9.68,3.38,3.38,0,0,1-3.32,3ZM415,96.85h38.8c-2.59-8-9.06-14.9-19-14.9C424.61,82,417.78,88.47,415,96.85Z"/><path class="cls-1" d="M552.5,144.51c-6.65,5-15.71,9.49-24.39,9.49C502.43,154,484,133.89,484,107.08c0-25.69,20.14-46.91,44.53-46.91,8.5,0,17.37,4.47,24,9.49V64.08A3.53,3.53,0,0,1,556,60.54h14.41a3.41,3.41,0,0,1,3.51,3.54v86a3.42,3.42,0,0,1-3.51,3.54H556a3.53,3.53,0,0,1-3.51-3.54Zm-23.28-13c13.12,0,22.54-11.17,22.54-24.39S542.34,82.7,529.22,82.7c-12.19,0-22.91,11.17-22.91,24.38S517,131.47,529.22,131.47Z"/><path class="cls-1" d="M592.57,17.35A3.48,3.48,0,0,1,596.08,14h14.41A3.37,3.37,0,0,1,614,17.35V150.09a3.42,3.42,0,0,1-3.51,3.54H596.08a3.53,3.53,0,0,1-3.51-3.54Z"/><path class="cls-1" d="M162,123.74a22.34,22.34,0,0,0-5.62-14.82s-.09-.11-.14-.17c-.47-.52-1-1-1.47-1.48l-.24-.23c-.21-.19-.4-.39-.62-.57a20.44,20.44,0,0,1-7.66-15.61V89.14a20.24,20.24,0,0,1,7.58-15.54c.14-.12.27-.26.4-.38.31-.27.6-.55.89-.83a21.52,21.52,0,0,0,1.53-1.64c.16-.18.32-.36.46-.55.36-.45.69-.91,1-1.38l0-.08a22.31,22.31,0,0,0-1.95-27.48l-.29-.31c-.4-.43-.82-.85-1.25-1.24l-.41-.38a23.48,23.48,0,0,0-3.61-2.58l-.08,0c-.64-.37-1.3-.7-2-1l-.06,0a21.79,21.79,0,0,0-6.46-1.77h-.16a22.19,22.19,0,0,0-4.82,0h0a21.25,21.25,0,0,0-2.37.38l-.08,0a22.48,22.48,0,0,0-17.36,18.13,20.47,20.47,0,0,1-9.69,14.44l-1.49.86a19.79,19.79,0,0,1-13.49,2.21,19.84,19.84,0,0,1-4.87-12.81V55.4A20.25,20.25,0,0,1,95.3,39.88a21.76,21.76,0,0,0,1.86-1.73l.48-.53c.41-.45.8-.91,1.17-1.39l.48-.64c.36-.51.7-1,1-1.58l.34-.56a22.7,22.7,0,0,0,1.11-2.27c0-.12.08-.25.13-.38a20.07,20.07,0,0,0,.7-2c.08-.27.14-.54.21-.81.14-.58.26-1.16.36-1.76,0-.29.1-.57.13-.87a19.38,19.38,0,0,0,.16-2c0-.21,0-.41,0-.62s0-.11,0-.17c0-.52,0-1-.08-1.55a.76.76,0,0,0,0-.15c0-.26,0-.53-.06-.8a1.09,1.09,0,0,0,0-.18c0-.27-.08-.52-.12-.78,0,0,0-.09,0-.13q-.14-.84-.33-1.65a2.81,2.81,0,0,0-.08-.31c-.09-.36-.17-.72-.28-1.07,0-.12-.09-.24-.13-.37L102.2,15c-.12-.34-.24-.67-.37-1l-.18-.43,0-.05-.12-.24,0-.08c-.15-.33-.3-.64-.46-1s-.27-.53-.42-.79-.16-.26-.23-.4l-.27-.42c-.23-.36-.45-.71-.69-1.06s-.47-.63-.71-.94-.39-.5-.6-.74-.65-.74-1-1.1l-.42-.42c-.41-.4-.83-.79-1.27-1.15L95.13,5c-.49-.41-1-.79-1.52-1.15l-.11-.06a22.58,22.58,0,0,0-4.27-2.24l-.3-.11q-.78-.3-1.56-.54l-.2-.05A22.4,22.4,0,0,0,59.7,15.27c0,.07-.05.14-.07.22-.22.66-.4,1.33-.56,2,0,.11,0,.22-.07.33v0c0,.05,0,.11,0,.17s-.1.41-.14.61a20.44,20.44,0,0,1-9.69,14.44l-1.49.86a20.26,20.26,0,0,1-17.25,1.2c-.43-.15-.86-.26-1.29-.39l-.44-.13c-.53-.15-1.07-.29-1.61-.4l-.28,0a22.37,22.37,0,0,0-8.89.08l-.22,0c-.63.14-1.26.32-1.89.52l-.65.21c-.54.19-1.08.4-1.61.63-.3.13-.58.28-.87.42-.47.23-.94.45-1.41.72s-.67.44-1,.66-.8.48-1.18.77a21.65,21.65,0,0,0-4.52,4.55c-.11.14-.21.28-.31.43-.27.38-.53.76-.77,1.16s-.35.56-.51.84-.16.3-.23.45A22.37,22.37,0,0,0,0,56.26c0,.44.05.87.07,1.3L.1,58c0,.53.1,1.06.17,1.59,0,.13,0,.26.07.4A22.47,22.47,0,0,0,8.09,73.53a20.46,20.46,0,0,1,7.66,15.61v1.72A20.24,20.24,0,0,1,8.17,106.4c-.35.29-.66.62-1,.93l-.33.3c-.4.39-.78.79-1.15,1.2l-.18.21a22.46,22.46,0,0,0-4.38,7.74l-.07.21c-.2.62-.36,1.26-.5,1.9,0,.22-.1.44-.14.67-.11.56-.2,1.13-.26,1.71,0,.32-.05.64-.07,1,0,.53-.08,1-.08,1.58s0,.82.06,1.23,0,.92.08,1.38a21.9,21.9,0,0,0,1.68,6.19l.21.48c.2.43.41.84.63,1.25s.31.58.47.86.19.29.28.43a22.24,22.24,0,0,0,7.84,7.63c.38.22.78.39,1.17.59l.38.19c.48.23,1,.45,1.46.64l.39.15a22.48,22.48,0,0,0,15.61.06,20.44,20.44,0,0,1,17.35,1.18l1.49.86a20.21,20.21,0,0,1,9.67,14.33c0,.21.1.41.15.61s.09.4.13.6a22.77,22.77,0,0,0,2.14,5.73h0c.33.62.71,1.23,1.1,1.82l0,.06a22.27,22.27,0,0,0,6,6l.14.09a18.72,18.72,0,0,0,1.78,1.08l.07,0c.59.32,1.17.65,1.8.92a22.29,22.29,0,0,0,13.31,1.33l.33-.08c.55-.12,1.09-.26,1.63-.42l.61-.19q.7-.22,1.38-.51l.56-.22c.57-.25,1.13-.52,1.67-.81l.13-.06a22.18,22.18,0,0,0,6.54-5.38l.17-.21c.2-.25.4-.48.59-.73s.2-.31.3-.46c.27-.39.53-.78.78-1.18l.43-.71c.3-.53.57-1.07.83-1.63.06-.14.14-.27.2-.41a22.47,22.47,0,0,0-28.54-30.08,20.39,20.39,0,0,1-17.18-1.23l-1.49-.86A20.21,20.21,0,0,1,44.71,120c-.05-.25-.13-.5-.18-.75-.08-.42-.18-.83-.28-1.24s-.22-.79-.35-1.18-.32-.94-.5-1.4-.27-.67-.42-1c-.22-.5-.47-1-.73-1.45-.16-.29-.3-.58-.47-.85-.34-.56-.7-1.09-1.08-1.61l-.38-.55a23.6,23.6,0,0,0-1.74-2l-.25-.23c-.46-.46-.92-.91-1.42-1.32a20.44,20.44,0,0,1-7.66-15.61V89.14A20.24,20.24,0,0,1,36.83,73.6c.2-.17.37-.36.56-.53s.63-.57.93-.86.58-.59.86-.89.65-.75,1-1.14.45-.57.66-.86.61-.9.89-1.36c.17-.28.35-.55.51-.84.31-.56.59-1.15.85-1.73.09-.21.2-.4.28-.61a22.35,22.35,0,0,0,.86-2.5c0-.11,0-.22.08-.33.16-.63.32-1.25.43-1.89a20.44,20.44,0,0,1,9.69-14.44l1.49-.86a19.86,19.86,0,0,1,13.47-2.22A19.83,19.83,0,0,1,74.25,55.4v1.72a20.24,20.24,0,0,1-7.58,15.54l0,0-.13.12-.77.68c-.22.2-.43.41-.64.62s-.46.46-.68.7-.42.47-.62.72l-.6.73-.25.32c-.09.12-.15.24-.23.35-.3.43-.58.86-.85,1.3-.12.19-.25.37-.35.56s-.15.26-.22.4-.3.59-.45.89-.35.7-.5,1-.25.64-.37,1l0,.09-.13.33c-.13.37-.26.74-.37,1.11s-.17.63-.25,1c-.14.57-.26,1.15-.35,1.73,0,.28-.1.56-.13.85-.09.7-.14,1.4-.17,2.11,0,.18,0,.36,0,.55,0,.34,0,.67,0,1s0,.8.07,1.2c0,.16,0,.33,0,.49a.76.76,0,0,0,0,.15c0,.15,0,.29.06.43,0,.29.09.58.14.87s.13.67.2,1,.14.58.22.87.17.63.27.93l0,.12h0c.08.26.18.52.27.78s.22.59.34.88c.06.13.09.26.15.38a.59.59,0,0,0,0,.08c.06.13.13.26.19.38.17.39.37.76.56,1.14.12.21.22.44.34.65l0,.06.12.19c.11.19.24.37.35.55.26.41.51.82.8,1.22.14.19.29.36.44.55.33.43.67.87,1,1.28s.52.53.79.8l.14.14c.24.24.47.49.72.71.41.37.84.71,1.27,1,.19.15.36.3.56.45.5.36,1,.69,1.56,1l.26.16.12.09.06,0h0c.24.14.5.26.74.38s.72.38,1.08.55l.4.19.38.15c.47.2,1,.38,1.43.54l.41.14.29.1c.58.18,1.18.33,1.79.46h0l.46.1.41.06c.43.07.85.15,1.28.2h.09l.36,0c.38,0,.76.05,1.15.07s.61,0,.92,0h.36l1,0c.34,0,.69,0,1-.06.15,0,.29,0,.44-.06l.84-.13c.35-.06.7-.1,1-.17l.54-.14.75-.2c.33-.09.65-.16,1-.27s.4-.14.6-.21l.24-.08a20.44,20.44,0,0,1,17.35,1.18l1.49.86a20.21,20.21,0,0,1,9.67,14.33c0,.26.12.5.18.76s0,.24.08.36a23,23,0,0,0,1,3.25s0,.07,0,.11A22.31,22.31,0,0,0,126.44,142a.71.71,0,0,1,.14.1,24.73,24.73,0,0,0,2.34,1.43c.36.19.72.38,1.09.56.21.09.39.21.6.3l.74.28.12,0q.78.3,1.59.54l.31.09c.47.13.95.25,1.44.35l.54.11c.42.07.84.14,1.26.19l.31.05.32,0c.56,0,1.12.09,1.68.1.26,0,.52,0,.77,0s.69,0,1-.05a22.39,22.39,0,0,0,12.75-4.83l.25-.21c.42-.35.84-.71,1.24-1.09l.14-.13A22.39,22.39,0,0,0,162,123.74ZM112.86,100.6A19.85,19.85,0,0,1,104.19,90a19.86,19.86,0,0,1,8.67-10.63l1.49-.86a19.81,19.81,0,0,1,13.54-2.2,19.81,19.81,0,0,1,4.86,12.8v1.72a19.81,19.81,0,0,1-4.81,12.77,19.87,19.87,0,0,1-13.59-2.17Z"/></g></g></svg>